<svg width="109" height="39" viewBox="0 0 109 39" fill="none" xmlns="http://www.w3.org/2000/svg">
<path d="M33.2717 33.6241C33.642 33.6683 33.9351 33.7921 34.1511 33.9955C34.3715 34.199 34.4817 34.4511 34.4817 34.7518C34.4817 34.9818 34.4156 35.1896 34.2834 35.3753C34.1511 35.5611 33.9682 35.7092 33.7346 35.8198C33.5009 35.9259 33.2409 35.979 32.9543 35.979C32.8309 35.979 32.6898 35.9724 32.5311 35.9591C32.4694 35.9547 32.3923 35.9503 32.2997 35.9458C32.2116 35.9414 32.1124 35.9392 32.0022 35.9392L31.5195 35.9458C31.4313 35.9503 31.3123 35.9525 31.1624 35.9525C31.1492 35.9525 31.1426 35.9392 31.1426 35.9127C31.1426 35.8861 31.1492 35.8729 31.1624 35.8729C31.2903 35.8729 31.3872 35.8618 31.4534 35.8397C31.5195 35.8132 31.5658 35.7689 31.5922 35.707C31.6231 35.6407 31.6385 35.5434 31.6385 35.4152V32.3438C31.6385 32.158 31.6076 32.0364 31.5459 31.9789C31.4842 31.917 31.3586 31.886 31.169 31.886C31.1602 31.886 31.1558 31.8728 31.1558 31.8462C31.1558 31.8197 31.1602 31.8064 31.169 31.8064L31.5195 31.8131C31.7222 31.8219 31.8831 31.8263 32.0022 31.8263C32.1256 31.8263 32.2534 31.8197 32.3857 31.8064C32.4298 31.802 32.4959 31.7976 32.584 31.7932C32.6722 31.7887 32.7493 31.7865 32.8155 31.7865C33.2166 31.7865 33.5274 31.8595 33.7478 32.0054C33.9682 32.1514 34.0784 32.3637 34.0784 32.6423C34.0784 32.8546 34.0079 33.0469 33.8668 33.2194C33.7302 33.3919 33.5318 33.5268 33.2717 33.6241ZM32.7163 31.9325C32.5884 31.9325 32.5003 31.9634 32.4518 32.0253C32.4033 32.0828 32.3791 32.1934 32.3791 32.357V33.6174L32.6436 33.6241C32.8728 33.6241 33.0491 33.5378 33.1725 33.3653C33.296 33.1929 33.3577 32.9717 33.3577 32.702C33.3577 32.4499 33.3026 32.2597 33.1924 32.1315C33.0822 31.9988 32.9235 31.9325 32.7163 31.9325ZM32.8419 35.8132C33.4194 35.8132 33.7081 35.5124 33.7081 34.911C33.7081 34.5705 33.6266 34.3007 33.4635 34.1017C33.3004 33.9027 33.0535 33.8032 32.7229 33.8032C32.5951 33.8032 32.4804 33.8076 32.3791 33.8164V35.4152C32.3791 35.5611 32.4077 35.665 32.465 35.7269C32.5223 35.7844 32.648 35.8132 32.8419 35.8132ZM37.3893 35.5147C37.3981 35.5147 37.4069 35.5235 37.4158 35.5412C37.429 35.5589 37.4312 35.5721 37.4224 35.581C37.2593 35.7402 37.094 35.8552 36.9264 35.9259C36.7589 35.9967 36.576 36.0321 36.3776 36.0321C36.0999 36.0321 35.8597 35.9746 35.6569 35.8596C35.4541 35.7402 35.2998 35.5832 35.194 35.3886C35.0883 35.1896 35.0354 34.9751 35.0354 34.7452C35.0354 34.4886 35.0993 34.252 35.2271 34.0353C35.3549 33.8186 35.5313 33.6484 35.7561 33.5246C35.9853 33.3963 36.2432 33.3322 36.5297 33.3322C36.803 33.3322 37.0146 33.3941 37.1645 33.5179C37.3144 33.6417 37.3893 33.8341 37.3893 34.095C37.3893 34.2321 37.3651 34.3007 37.3166 34.3007L35.7098 34.3073C35.7054 34.3383 35.7032 34.3891 35.7032 34.4599C35.7032 34.8491 35.7914 35.1542 35.9677 35.3753C36.1484 35.5965 36.4063 35.707 36.7413 35.707C36.8603 35.707 36.9617 35.6938 37.0455 35.6672C37.1292 35.6407 37.2394 35.592 37.3761 35.5213L37.3893 35.5147ZM36.2785 33.4649C36.133 33.4649 36.0118 33.529 35.9148 33.6572C35.8178 33.7811 35.7539 33.9535 35.723 34.1747L36.6818 34.1614C36.6774 33.9358 36.6443 33.7634 36.5826 33.644C36.5209 33.5246 36.4195 33.4649 36.2785 33.4649ZM40.3451 35.5943C40.3627 35.5943 40.3737 35.6053 40.3781 35.6274C40.387 35.6451 40.3825 35.6584 40.3649 35.6672L39.6839 35.9923C39.6662 36.0011 39.6442 36.0055 39.6177 36.0055C39.5472 36.0055 39.4789 35.968 39.4128 35.8928C39.351 35.8176 39.307 35.7159 39.2805 35.5876L38.9962 35.7866C38.8948 35.8618 38.8 35.9171 38.7119 35.9525C38.6237 35.9834 38.5245 35.9989 38.4143 35.9989C38.2248 35.9989 38.0815 35.9569 37.9845 35.8729C37.8875 35.7888 37.839 35.6717 37.839 35.5213C37.839 35.4019 37.8677 35.3068 37.925 35.236C37.9823 35.1609 38.0528 35.1034 38.1366 35.0636C38.2248 35.0193 38.346 34.9707 38.5003 34.9176L38.6656 34.8579L39.2607 34.639V34.2609C39.2607 33.9779 39.2364 33.7722 39.1879 33.644C39.1439 33.5157 39.0667 33.4516 38.9565 33.4516C38.7229 33.4516 38.5906 33.6329 38.5598 33.9955C38.5466 34.1282 38.5069 34.2233 38.4408 34.2808C38.379 34.3383 38.2909 34.367 38.1763 34.367C38.0661 34.367 37.9845 34.3449 37.9316 34.3007C37.8831 34.252 37.8589 34.1901 37.8589 34.115C37.8589 33.9823 37.936 33.8562 38.0903 33.7368C38.2446 33.613 38.4297 33.5135 38.6457 33.4383C38.8661 33.3631 39.0601 33.3255 39.2276 33.3255C39.4216 33.3255 39.5781 33.3875 39.6971 33.5113C39.8205 33.6307 39.8822 33.8142 39.8822 34.0619V35.236C39.8822 35.3643 39.9043 35.4638 39.9483 35.5346C39.9968 35.6053 40.063 35.6407 40.1467 35.6407C40.2084 35.6407 40.2723 35.6252 40.3385 35.5943H40.3451ZM39.2673 35.4749C39.2629 35.4572 39.2607 35.4284 39.2607 35.3886V34.7518L38.9763 34.8845C38.9631 34.8889 38.919 34.9066 38.8441 34.9375C38.7692 34.9641 38.703 35.0105 38.6457 35.0768C38.5928 35.1432 38.5664 35.2206 38.5664 35.309C38.5664 35.4151 38.5995 35.4992 38.6656 35.5611C38.7361 35.6186 38.8154 35.6473 38.9036 35.6473C38.9741 35.6473 39.0469 35.623 39.1218 35.5744L39.2673 35.4749ZM43.6571 35.5213C43.6704 35.5213 43.6814 35.5323 43.6902 35.5545C43.7034 35.5766 43.7034 35.5898 43.6902 35.5943L42.7777 36.0387C42.7689 36.0431 42.7579 36.0453 42.7446 36.0453C42.7006 36.0453 42.6609 35.9989 42.6256 35.906C42.5948 35.8087 42.5771 35.6783 42.5727 35.5147C42.2818 35.8596 41.9666 36.0321 41.6272 36.0321C41.3847 36.0321 41.193 35.9569 41.0519 35.8065C40.9153 35.6518 40.8469 35.4505 40.8469 35.2029V34.2277C40.8469 33.9403 40.7786 33.7965 40.642 33.7965C40.5935 33.7965 40.5384 33.812 40.4767 33.843H40.47C40.4524 33.843 40.4392 33.8319 40.4304 33.8098C40.4216 33.7833 40.4238 33.7678 40.437 33.7634L41.323 33.3388L41.3561 33.3322C41.3781 33.3322 41.4002 33.3432 41.4222 33.3653C41.4487 33.383 41.4619 33.4007 41.4619 33.4184V34.8845C41.4619 35.3621 41.6448 35.6009 42.0107 35.6009C42.1077 35.6009 42.2047 35.581 42.3016 35.5412C42.403 35.497 42.4934 35.4373 42.5727 35.3621V34.2277C42.5727 33.9403 42.5044 33.7965 42.3678 33.7965C42.3193 33.7965 42.262 33.812 42.1958 33.843H42.1892C42.176 33.843 42.165 33.8319 42.1562 33.8098C42.1473 33.7833 42.1496 33.7678 42.1628 33.7634L43.0488 33.3388C43.0576 33.3344 43.0686 33.3322 43.0819 33.3322C43.1039 33.3322 43.126 33.3432 43.148 33.3653C43.1744 33.383 43.1877 33.4007 43.1877 33.4184V35.183C43.1877 35.3333 43.2009 35.4395 43.2273 35.5014C43.2582 35.5633 43.3067 35.5943 43.3728 35.5943C43.4345 35.5943 43.5249 35.5699 43.6439 35.5213H43.6571ZM45.8384 35.4881C45.856 35.4881 45.8693 35.497 45.8781 35.5147C45.8913 35.5323 45.8913 35.5456 45.8781 35.5545C45.715 35.7181 45.5563 35.8397 45.402 35.9193C45.2477 35.9945 45.0846 36.0321 44.9127 36.0321C44.7187 36.0321 44.5534 35.9856 44.4168 35.8928C44.2801 35.7999 44.2118 35.6429 44.2118 35.4218V33.9491C44.2118 33.812 44.1875 33.7169 44.1391 33.6639C44.0906 33.6108 44.0024 33.5843 43.8746 33.5843C43.8702 33.5843 43.8635 33.5776 43.8547 33.5644C43.8503 33.5511 43.8481 33.5378 43.8481 33.5246C43.8481 33.5069 43.8503 33.4936 43.8547 33.4848C43.8591 33.4715 43.8658 33.4649 43.8746 33.4649C44.0994 33.456 44.2801 33.4074 44.4168 33.3189C44.5578 33.2305 44.6658 33.0956 44.7408 32.9143C44.7496 32.8966 44.7672 32.8877 44.7937 32.8877C44.8245 32.8877 44.8399 32.8966 44.8399 32.9143V33.445C45.0956 33.4405 45.3822 33.4206 45.6995 33.3852C45.7084 33.3852 45.7172 33.4029 45.726 33.4383C45.7392 33.4693 45.7458 33.5047 45.7458 33.5445C45.7458 33.5887 45.737 33.6329 45.7194 33.6771C45.7062 33.7169 45.6907 33.7346 45.6731 33.7302C45.3866 33.6683 45.1088 33.6351 44.8399 33.6307V35.2029C44.8399 35.3709 44.8818 35.4948 44.9656 35.5744C45.0537 35.654 45.1684 35.6938 45.3094 35.6938C45.4857 35.6938 45.6577 35.6274 45.8252 35.4948L45.8384 35.4881ZM48.8333 33.3919C48.8421 33.3919 48.8465 33.4051 48.8465 33.4317C48.8465 33.4582 48.8421 33.4715 48.8333 33.4715C48.6922 33.4715 48.5688 33.5334 48.463 33.6572C48.3616 33.7766 48.269 33.9513 48.1853 34.1813L47.4513 36.1382C47.2177 36.7574 46.9929 37.1908 46.7769 37.4384C46.5653 37.6905 46.3295 37.8165 46.0694 37.8165C45.9371 37.8165 45.8357 37.7878 45.7652 37.7303C45.6947 37.6772 45.6594 37.5976 45.6594 37.4915C45.6594 37.3898 45.6903 37.3124 45.752 37.2593C45.8137 37.2062 45.8886 37.1797 45.9768 37.1797C46.0253 37.1797 46.065 37.1863 46.0958 37.1996C46.1311 37.2129 46.173 37.235 46.2215 37.2659C46.3052 37.3234 46.3846 37.3522 46.4595 37.3522C46.5609 37.3522 46.6513 37.3124 46.7306 37.2328C46.8144 37.1576 46.9003 37.0293 46.9885 36.848C47.0766 36.6711 47.1824 36.4168 47.3059 36.0851L46.2479 33.9425C46.1509 33.7523 46.0738 33.6263 46.0165 33.5644C45.9636 33.5024 45.8975 33.4715 45.8181 33.4715C45.8049 33.4715 45.7983 33.4582 45.7983 33.4317C45.7983 33.4051 45.8049 33.3919 45.8181 33.3919C45.9415 33.3919 46.0363 33.3941 46.1024 33.3985L46.3802 33.4051L46.8364 33.3985C46.9069 33.3941 47.0017 33.3919 47.1207 33.3919C47.1339 33.3919 47.1406 33.4051 47.1406 33.4317C47.1406 33.4582 47.1339 33.4715 47.1207 33.4715C47.0061 33.4715 46.9224 33.4825 46.8695 33.5047C46.8166 33.5223 46.7901 33.5533 46.7901 33.5975C46.7901 33.6329 46.8033 33.6771 46.8298 33.7302L47.61 35.3289L48.0068 34.1747C48.0464 34.0597 48.0663 33.9557 48.0663 33.8629C48.0663 33.739 48.031 33.644 47.9605 33.5776C47.8899 33.5069 47.7886 33.4715 47.6563 33.4715C47.6475 33.4715 47.6431 33.4582 47.6431 33.4317C47.6431 33.4051 47.6475 33.3919 47.6563 33.3919C47.7753 33.3919 47.8657 33.3941 47.9274 33.3985L48.3241 33.4051L48.5886 33.3985C48.6415 33.3941 48.7231 33.3919 48.8333 33.3919ZM51.4394 32.4764C51.4394 32.6356 51.4791 32.7772 51.5584 32.901C51.6422 33.0248 51.7435 33.1332 51.8626 33.226C51.9816 33.3189 52.1425 33.4317 52.3453 33.5644C52.5657 33.7059 52.742 33.8297 52.8742 33.9358C53.0065 34.042 53.1189 34.1724 53.2115 34.3272C53.304 34.4776 53.3503 34.6523 53.3503 34.8513C53.3503 35.0813 53.2886 35.2869 53.1652 35.4682C53.0417 35.6451 52.8698 35.7844 52.6494 35.8861C52.4334 35.9834 52.191 36.0321 51.9221 36.0321C51.7237 36.0321 51.5165 36.0055 51.3005 35.9525C51.0845 35.895 50.9391 35.8331 50.8641 35.7667C50.8421 35.749 50.8244 35.7336 50.8112 35.7203C50.8024 35.7026 50.798 35.6761 50.798 35.6407L50.7782 34.5859V34.5793C50.7782 34.5616 50.7892 34.5528 50.8112 34.5528C50.8333 34.5484 50.8465 34.555 50.8509 34.5727C50.9831 34.8424 51.0978 35.0614 51.1947 35.2294C51.2961 35.3975 51.4217 35.5456 51.5716 35.6739C51.7259 35.8021 51.9 35.8662 52.094 35.8662C52.2703 35.8662 52.4158 35.8198 52.5304 35.7269C52.645 35.6296 52.7023 35.466 52.7023 35.236C52.7023 35.0415 52.6582 34.8712 52.5701 34.7252C52.4863 34.5793 52.3827 34.4555 52.2593 34.3538C52.1359 34.252 51.9662 34.1304 51.7502 33.9889C51.5386 33.8518 51.3733 33.7346 51.2542 33.6373C51.1396 33.54 51.0404 33.4228 50.9567 33.2857C50.8729 33.1486 50.8311 32.9872 50.8311 32.8015C50.8311 32.5671 50.8972 32.3703 51.0294 32.2111C51.1661 32.0475 51.3402 31.9281 51.5518 31.8529C51.7634 31.7733 51.986 31.7335 52.2196 31.7335C52.3739 31.7335 52.5304 31.7489 52.6891 31.7799C52.8478 31.8064 52.9756 31.8396 53.0726 31.8794C53.1123 31.8971 53.1387 31.917 53.1519 31.9391C53.1652 31.9568 53.1718 31.9811 53.1718 32.0121V32.9872C53.1718 33.0005 53.1608 33.0116 53.1387 33.0204C53.1167 33.0248 53.1035 33.0204 53.099 33.0071L53.0462 32.8811C52.9359 32.6025 52.8059 32.3659 52.656 32.1713C52.5106 31.9767 52.3056 31.8794 52.0411 31.8794C51.8648 31.8794 51.7193 31.9303 51.6047 32.032C51.4945 32.1337 51.4394 32.2818 51.4394 32.4764ZM55.4176 36.0387C55.2016 36.0387 55.0121 36.0144 54.849 35.9657V37.2394C54.849 37.3721 54.8622 37.4694 54.8886 37.5313C54.9195 37.5932 54.9746 37.6352 55.0539 37.6573C55.1377 37.6839 55.2655 37.6971 55.4375 37.6971C55.4507 37.6971 55.4573 37.7104 55.4573 37.7369C55.4573 37.7635 55.4507 37.7767 55.4375 37.7767C55.2744 37.7767 55.1465 37.7745 55.0539 37.7701L54.5316 37.7635L54.1415 37.7701C54.0753 37.7745 53.9828 37.7767 53.8638 37.7767C53.8505 37.7767 53.8439 37.7635 53.8439 37.7369C53.8439 37.7104 53.8505 37.6971 53.8638 37.6971C53.9695 37.6971 54.0467 37.6839 54.0952 37.6573C54.1481 37.6352 54.1833 37.5932 54.201 37.5313C54.223 37.4694 54.234 37.3721 54.234 37.2394V34.168C54.234 34.0265 54.2186 33.9248 54.1877 33.8629C54.1569 33.801 54.1018 33.77 54.0224 33.77C53.9519 33.77 53.8505 33.801 53.7183 33.8629H53.7051C53.6918 33.8629 53.6808 33.8518 53.672 33.8297C53.6588 33.8076 53.6566 33.7943 53.6654 33.7899L54.6043 33.3322C54.6131 33.3278 54.6242 33.3255 54.6374 33.3255C54.6815 33.3255 54.7211 33.3631 54.7564 33.4383C54.7961 33.5135 54.8225 33.6152 54.8357 33.7435C55.1575 33.4516 55.4882 33.3056 55.8276 33.3056C56.0128 33.3056 56.1847 33.3543 56.3434 33.4516C56.5065 33.5489 56.6365 33.6904 56.7335 33.8761C56.8305 34.0619 56.879 34.2786 56.879 34.5262C56.879 34.88 56.8062 35.1719 56.6608 35.4019C56.5153 35.6274 56.3302 35.7911 56.1054 35.8928C55.8849 35.9901 55.6557 36.0387 55.4176 36.0387ZM55.3912 33.6771C55.1928 33.6771 55.0121 33.7479 54.849 33.8894V33.9425V35.5412C54.9459 35.6517 55.0473 35.7358 55.1531 35.7933C55.2589 35.8463 55.389 35.8729 55.5433 35.8729C55.9885 35.8729 56.2111 35.4925 56.2111 34.7319C56.2111 34.3958 56.1318 34.1371 55.9731 33.9557C55.8188 33.77 55.6248 33.6771 55.3912 33.6771ZM59.8523 35.5943C59.8699 35.5943 59.8809 35.6053 59.8853 35.6274C59.8941 35.6451 59.8897 35.6584 59.8721 35.6672L59.191 35.9923C59.1734 36.0011 59.1514 36.0055 59.1249 36.0055C59.0544 36.0055 58.9861 35.968 58.9199 35.8928C58.8582 35.8176 58.8142 35.7159 58.7877 35.5876L58.5034 35.7866C58.402 35.8618 58.3072 35.9171 58.2191 35.9525C58.1309 35.9834 58.0317 35.9989 57.9215 35.9989C57.732 35.9989 57.5887 35.9569 57.4917 35.8729C57.3947 35.7888 57.3462 35.6717 57.3462 35.5213C57.3462 35.4019 57.3749 35.3068 57.4322 35.236C57.4895 35.1609 57.56 35.1034 57.6438 35.0636C57.732 35.0193 57.8532 34.9707 58.0075 34.9176L58.1728 34.8579L58.7679 34.639V34.2609C58.7679 33.9779 58.7436 33.7722 58.6951 33.644C58.6511 33.5157 58.5739 33.4516 58.4637 33.4516C58.2301 33.4516 58.0978 33.6329 58.067 33.9955C58.0537 34.1282 58.0141 34.2233 57.948 34.2808C57.8862 34.3383 57.7981 34.367 57.6835 34.367C57.5733 34.367 57.4917 34.3449 57.4388 34.3007C57.3903 34.252 57.3661 34.1901 57.3661 34.115C57.3661 33.9823 57.4432 33.8562 57.5975 33.7368C57.7518 33.613 57.9369 33.5135 58.1529 33.4383C58.3733 33.3631 58.5673 33.3255 58.7348 33.3255C58.9288 33.3255 59.0853 33.3875 59.2043 33.5113C59.3277 33.6307 59.3894 33.8142 59.3894 34.0619V35.236C59.3894 35.3643 59.4115 35.4638 59.4555 35.5346C59.504 35.6053 59.5701 35.6407 59.6539 35.6407C59.7156 35.6407 59.7795 35.6252 59.8457 35.5943H59.8523ZM58.7745 35.4749C58.7701 35.4572 58.7679 35.4284 58.7679 35.3886V34.7518L58.4835 34.8845C58.4703 34.8889 58.4262 34.9066 58.3513 34.9375C58.2764 34.9641 58.2102 35.0105 58.1529 35.0768C58.1 35.1432 58.0736 35.2206 58.0736 35.309C58.0736 35.4151 58.1066 35.4992 58.1728 35.5611C58.2433 35.6186 58.3226 35.6473 58.4108 35.6473C58.4813 35.6473 58.5541 35.623 58.629 35.5744L58.7745 35.4749ZM64.2384 31.7335C64.4456 31.7335 64.6549 31.7512 64.8665 31.7865C65.0825 31.8175 65.2545 31.8595 65.3823 31.9126C65.422 31.9258 65.4462 31.9435 65.455 31.9656C65.4682 31.9833 65.4771 32.0165 65.4815 32.0651L65.5674 32.9872C65.5674 33.0005 65.5564 33.0093 65.5344 33.0138C65.5123 33.0182 65.4969 33.0115 65.4881 32.9939C65.3647 32.6312 65.1883 32.3548 64.9591 32.1647C64.7299 31.9701 64.4544 31.8728 64.1326 31.8728C63.8328 31.8728 63.5639 31.9546 63.3259 32.1182C63.0923 32.2774 62.9071 32.5074 62.7705 32.8081C62.6382 33.1088 62.5721 33.4604 62.5721 33.8629C62.5721 34.2697 62.6404 34.628 62.7771 34.9375C62.9181 35.2427 63.1099 35.4793 63.3523 35.6473C63.5992 35.811 63.8813 35.8928 64.1987 35.8928C64.5029 35.8928 64.7585 35.811 64.9657 35.6473C65.1729 35.4793 65.3691 35.2051 65.5542 34.8248C65.5586 34.8115 65.5718 34.8071 65.5939 34.8115C65.6159 34.8159 65.6269 34.8248 65.6269 34.838L65.5278 35.6606C65.5189 35.7137 65.5101 35.749 65.5013 35.7667C65.4925 35.78 65.4682 35.7955 65.4286 35.8132C65.023 35.9591 64.6131 36.0321 64.1987 36.0321C63.727 36.0321 63.3038 35.9436 62.9292 35.7667C62.5589 35.5854 62.2679 35.3333 62.0563 35.0105C61.8448 34.6877 61.739 34.3206 61.739 33.9093C61.739 33.4892 61.847 33.1155 62.063 32.7882C62.2834 32.4565 62.5831 32.1978 62.9622 32.0121C63.3457 31.8263 63.7711 31.7335 64.2384 31.7335ZM68.6862 35.5943C68.7038 35.5943 68.7148 35.6053 68.7193 35.6274C68.7281 35.6451 68.7237 35.6584 68.706 35.6672L68.025 35.9923C68.0073 36.0011 67.9853 36.0055 67.9589 36.0055C67.8883 36.0055 67.82 35.968 67.7539 35.8928C67.6922 35.8176 67.6481 35.7159 67.6216 35.5876L67.3373 35.7866C67.2359 35.8618 67.1411 35.9171 67.053 35.9525C66.9648 35.9834 66.8656 35.9989 66.7554 35.9989C66.5659 35.9989 66.4226 35.9569 66.3256 35.8729C66.2287 35.7888 66.1802 35.6717 66.1802 35.5213C66.1802 35.4019 66.2088 35.3068 66.2661 35.236C66.3234 35.1609 66.394 35.1034 66.4777 35.0636C66.5659 35.0193 66.6871 34.9707 66.8414 34.9176L67.0067 34.8579L67.6018 34.639V34.2609C67.6018 33.9779 67.5775 33.7722 67.5291 33.644C67.485 33.5157 67.4078 33.4516 67.2976 33.4516C67.064 33.4516 66.9318 33.6329 66.9009 33.9955C66.8877 34.1282 66.848 34.2233 66.7819 34.2808C66.7202 34.3383 66.632 34.367 66.5174 34.367C66.4072 34.367 66.3256 34.3449 66.2727 34.3007C66.2242 34.252 66.2 34.1901 66.2 34.115C66.2 33.9823 66.2771 33.8562 66.4314 33.7368C66.5857 33.613 66.7709 33.5135 66.9869 33.4383C67.2073 33.3631 67.4012 33.3255 67.5682 33.3255C67.7621 33.3255 67.9192 33.3875 68.0382 33.5113C68.1616 33.6307 68.2233 33.8142 68.2233 34.0619V35.236C68.2233 35.3643 68.2454 35.4638 68.2895 35.5346C68.338 35.6053 68.4041 35.6407 68.4878 35.6407C68.5495 35.6407 68.6135 35.6252 68.6796 35.5943H68.6862ZM67.6084 35.4749C67.604 35.4572 67.6018 35.4284 67.6018 35.3886V34.7518L67.3175 34.8845C67.3042 34.8889 67.2602 34.9066 67.1852 34.9375C67.1103 34.9641 67.0442 35.0105 66.9869 35.0768C66.934 35.1432 66.9075 35.2206 66.9075 35.309C66.9075 35.4151 66.9406 35.4992 67.0067 35.5611C67.0772 35.6186 67.1566 35.6473 67.2447 35.6473C67.3153 35.6473 67.388 35.623 67.4629 35.5744L67.6084 35.4749ZM70.6754 33.3255C70.7768 33.3255 70.8737 33.3631 70.9663 33.4383C71.0633 33.5091 71.1118 33.5953 71.1118 33.697C71.1118 33.7899 71.0831 33.8673 71.0258 33.9292C70.9685 33.9867 70.8936 34.0154 70.801 34.0154C70.7349 34.0154 70.6798 34.0022 70.6357 33.9756C70.596 33.9491 70.5541 33.9093 70.5101 33.8562C70.4704 33.812 70.4351 33.7811 70.4043 33.7634C70.3778 33.7413 70.3448 33.7302 70.3051 33.7302C70.261 33.7302 70.2125 33.7479 70.1596 33.7833C70.1111 33.8142 70.034 33.8828 69.9282 33.9889V35.4152C69.9282 35.592 69.9701 35.7137 70.0538 35.78C70.1376 35.8419 70.2919 35.8729 70.5167 35.8729C70.5343 35.8729 70.5431 35.8861 70.5431 35.9127C70.5431 35.9392 70.5343 35.9525 70.5167 35.9525C70.3624 35.9525 70.2412 35.9503 70.153 35.9458L69.6174 35.9392L69.2273 35.9458C69.1612 35.9503 69.0708 35.9525 68.9562 35.9525C68.943 35.9525 68.9364 35.9392 68.9364 35.9127C68.9364 35.8861 68.943 35.8729 68.9562 35.8729C69.0928 35.8729 69.1854 35.8419 69.2339 35.78C69.2824 35.7137 69.3066 35.592 69.3066 35.4152V34.168C69.3066 34.0309 69.289 33.9314 69.2537 33.8695C69.2229 33.8032 69.1722 33.77 69.1017 33.77C69.0267 33.77 68.9209 33.801 68.7843 33.8629H68.771C68.7578 33.8629 68.7468 33.8518 68.738 33.8297C68.7336 33.8076 68.7358 33.7943 68.7446 33.7899L69.6637 33.3388C69.6901 33.33 69.7056 33.3255 69.71 33.3255C69.7585 33.3255 69.8026 33.372 69.8422 33.4649C69.8863 33.5533 69.9128 33.6749 69.9216 33.8297C70.1023 33.644 70.25 33.5135 70.3646 33.4383C70.4836 33.3631 70.5872 33.3255 70.6754 33.3255ZM73.6922 35.5147C73.701 35.5147 73.7098 35.5235 73.7186 35.5412C73.7319 35.5589 73.7341 35.5721 73.7253 35.581C73.5621 35.7402 73.3968 35.8552 73.2293 35.9259C73.0618 35.9967 72.8789 36.0321 72.6805 36.0321C72.4028 36.0321 72.1626 35.9746 71.9598 35.8596C71.757 35.7402 71.6027 35.5832 71.4969 35.3886C71.3911 35.1896 71.3382 34.9751 71.3382 34.7452C71.3382 34.4886 71.4022 34.252 71.53 34.0353C71.6578 33.8186 71.8342 33.6484 72.059 33.5246C72.2882 33.3963 72.5461 33.3322 72.8326 33.3322C73.1059 33.3322 73.3175 33.3941 73.4674 33.5179C73.6173 33.6417 73.6922 33.8341 73.6922 34.095C73.6922 34.2321 73.6679 34.3007 73.6195 34.3007L72.0127 34.3073C72.0083 34.3383 72.0061 34.3891 72.0061 34.4599C72.0061 34.8491 72.0942 35.1542 72.2706 35.3753C72.4513 35.5965 72.7092 35.707 73.0442 35.707C73.1632 35.707 73.2646 35.6938 73.3484 35.6672C73.4321 35.6407 73.5423 35.592 73.679 35.5213L73.6922 35.5147ZM72.5813 33.4649C72.4359 33.4649 72.3146 33.529 72.2177 33.6572C72.1207 33.7811 72.0568 33.9535 72.0259 34.1747L72.9847 34.1614C72.9803 33.9358 72.9472 33.7634 72.8855 33.644C72.8238 33.5246 72.7224 33.4649 72.5813 33.4649ZM80.2339 35.8729C80.2515 35.8773 80.2581 35.8928 80.2537 35.9193C80.2537 35.9414 80.2471 35.9525 80.2339 35.9525H79.1495C79.026 35.9525 78.8145 35.8441 78.5147 35.6274C78.1841 35.8972 77.7631 36.0321 77.2518 36.0321C76.9476 36.0321 76.6919 35.9879 76.4848 35.8994C76.2776 35.811 76.1233 35.6938 76.0219 35.5478C75.9205 35.4019 75.8698 35.2471 75.8698 35.0835C75.8698 34.8712 75.9426 34.681 76.088 34.513C76.2335 34.3449 76.4539 34.1503 76.7492 33.9292C76.6787 33.8363 76.6104 33.7302 76.5443 33.6108C76.4826 33.487 76.4341 33.3698 76.3988 33.2592C76.3679 33.1486 76.3525 33.027 76.3525 32.8944C76.3525 32.5361 76.4649 32.242 76.6897 32.0121C76.919 31.7821 77.2297 31.6671 77.6221 31.6671C77.8954 31.6671 78.1114 31.7268 78.27 31.8462C78.4287 31.9612 78.5081 32.1226 78.5081 32.3305C78.5081 32.503 78.4574 32.6622 78.356 32.8081C78.259 32.9496 78.1466 33.069 78.0188 33.1663C77.8909 33.2636 77.6926 33.4029 77.4237 33.5843C77.7411 34.0575 78.1841 34.5218 78.7527 34.9773C78.7924 34.8225 78.8123 34.6479 78.8123 34.4533C78.8123 34.1968 78.7704 34.011 78.6866 33.896C78.6029 33.7766 78.4662 33.7169 78.2767 33.7169C78.2678 33.7169 78.2612 33.7037 78.2568 33.6771C78.2568 33.6506 78.2634 33.6373 78.2767 33.6373L79.8504 33.6307C79.8636 33.6307 79.8702 33.644 79.8702 33.6705C79.8702 33.697 79.8636 33.7103 79.8504 33.7103C79.7181 33.7103 79.6189 33.7258 79.5528 33.7567C79.4911 33.7833 79.4426 33.8297 79.4074 33.896C79.3765 33.9624 79.3412 34.0685 79.3016 34.2145C79.2531 34.3914 79.2024 34.5528 79.1495 34.6987C79.0966 34.8447 79.0282 34.9862 78.9445 35.1233C79.231 35.34 79.4845 35.5102 79.7049 35.6341C79.9297 35.7579 80.106 35.8375 80.2339 35.8729ZM76.9741 32.3239C76.9741 32.6688 77.0953 33.0425 77.3377 33.445C77.6507 33.1398 77.8072 32.8148 77.8072 32.4698C77.8072 32.2752 77.7609 32.1226 77.6683 32.0121C77.5802 31.9015 77.4634 31.8462 77.3179 31.8462C77.1945 31.8462 77.1063 31.886 77.0534 31.9656C77.0005 32.0452 76.9741 32.1647 76.9741 32.3239ZM77.7609 35.707C78.0166 35.707 78.2282 35.6495 78.3957 35.5346C78.3252 35.4859 78.2304 35.4129 78.1114 35.3156C77.8865 35.1343 77.6595 34.9331 77.4303 34.712C77.2055 34.4864 77.0071 34.2653 76.8352 34.0486C76.6368 34.2565 76.5376 34.4754 76.5376 34.7053C76.5376 34.8778 76.5861 35.0415 76.6831 35.1962C76.7845 35.3466 76.9278 35.4704 77.1129 35.5677C77.2981 35.6606 77.5141 35.707 77.7609 35.707ZM86.5034 31.8064C86.5122 31.8064 86.5166 31.8197 86.5166 31.8462C86.5166 31.8728 86.5122 31.886 86.5034 31.886C86.327 31.886 86.1882 31.9568 86.0868 32.0983C85.9854 32.2354 85.9347 32.4212 85.9347 32.6555V36.052C85.9347 36.0653 85.9237 36.0741 85.9016 36.0785C85.884 36.0829 85.8708 36.0807 85.862 36.0719L82.7608 32.5295V35.11C82.7608 35.3444 82.8093 35.5301 82.9063 35.6672C83.0033 35.8043 83.1377 35.8729 83.3097 35.8729C83.3185 35.8729 83.3229 35.8861 83.3229 35.9127C83.3229 35.9392 83.3185 35.9525 83.3097 35.9525C83.1862 35.9525 83.0915 35.9503 83.0253 35.9458L82.6683 35.9392L82.2583 35.9458C82.1834 35.9503 82.0754 35.9525 81.9343 35.9525C81.9211 35.9525 81.9145 35.9392 81.9145 35.9127C81.9145 35.8861 81.9211 35.8729 81.9343 35.8729C82.1283 35.8729 82.2804 35.8043 82.3906 35.6672C82.5052 35.5301 82.5625 35.3444 82.5625 35.11V32.304C82.417 32.1448 82.2914 32.0364 82.1856 31.9789C82.0842 31.917 81.9784 31.886 81.8682 31.886C81.8594 31.886 81.855 31.8728 81.855 31.8462C81.855 31.8197 81.8594 31.8064 81.8682 31.8064L82.1459 31.8131C82.2032 31.8175 82.287 31.8197 82.3972 31.8197L82.8997 31.8131C82.9614 31.8086 83.0364 31.8064 83.1245 31.8064C83.1598 31.8064 83.1862 31.8153 83.2039 31.833C83.2215 31.8507 83.2524 31.8882 83.2964 31.9457C83.3714 32.0475 83.4243 32.116 83.4551 32.1514L85.743 34.7982V32.6555C85.743 32.4167 85.6945 32.2288 85.5975 32.0917C85.5005 31.9546 85.3661 31.886 85.1941 31.886C85.1853 31.886 85.1809 31.8728 85.1809 31.8462C85.1809 31.8197 85.1853 31.8064 85.1941 31.8064L85.4785 31.8131C85.6195 31.8219 85.7386 31.8263 85.8355 31.8263C85.9237 31.8263 86.0471 31.8219 86.2058 31.8131L86.5034 31.8064ZM89.3554 35.5943C89.3731 35.5943 89.3841 35.6053 89.3885 35.6274C89.3973 35.6451 89.3929 35.6584 89.3753 35.6672L88.6942 35.9923C88.6766 36.0011 88.6545 36.0055 88.6281 36.0055C88.5576 36.0055 88.4892 35.968 88.4231 35.8928C88.3614 35.8176 88.3173 35.7159 88.2909 35.5876L88.0065 35.7866C87.9052 35.8618 87.8104 35.9171 87.7222 35.9525C87.6341 35.9834 87.5349 35.9989 87.4247 35.9989C87.2351 35.9989 87.0918 35.9569 86.9949 35.8729C86.8979 35.7888 86.8494 35.6717 86.8494 35.5213C86.8494 35.4019 86.8781 35.3068 86.9354 35.236C86.9927 35.1609 87.0632 35.1034 87.1469 35.0636C87.2351 35.0193 87.3563 34.9707 87.5106 34.9176L87.6759 34.8579L88.271 34.639V34.2609C88.271 33.9779 88.2468 33.7722 88.1983 33.644C88.1542 33.5157 88.0771 33.4516 87.9669 33.4516C87.7332 33.4516 87.601 33.6329 87.5701 33.9955C87.5569 34.1282 87.5172 34.2233 87.4511 34.2808C87.3894 34.3383 87.3012 34.367 87.1866 34.367C87.0764 34.367 86.9949 34.3449 86.942 34.3007C86.8935 34.252 86.8692 34.1901 86.8692 34.115C86.8692 33.9823 86.9464 33.8562 87.1007 33.7368C87.2549 33.613 87.4401 33.5135 87.6561 33.4383C87.8765 33.3631 88.0705 33.3255 88.238 33.3255C88.4319 33.3255 88.5884 33.3875 88.7074 33.5113C88.8309 33.6307 88.8926 33.8142 88.8926 34.0619V35.236C88.8926 35.3643 88.9146 35.4638 88.9587 35.5346C89.0072 35.6053 89.0733 35.6407 89.1571 35.6407C89.2188 35.6407 89.2827 35.6252 89.3488 35.5943H89.3554ZM88.2776 35.4749C88.2732 35.4572 88.271 35.4284 88.271 35.3886V34.7518L87.9867 34.8845C87.9735 34.8889 87.9294 34.9066 87.8545 34.9375C87.7795 34.9641 87.7134 35.0105 87.6561 35.0768C87.6032 35.1432 87.5767 35.2206 87.5767 35.309C87.5767 35.4151 87.6098 35.4992 87.6759 35.5611C87.7465 35.6186 87.8258 35.6473 87.914 35.6473C87.9845 35.6473 88.0572 35.623 88.1322 35.5744L88.2776 35.4749ZM90.2607 32.6688C90.1329 32.6688 90.0337 32.6334 89.9632 32.5627C89.8927 32.4919 89.8574 32.3924 89.8574 32.2642C89.8574 32.1492 89.8927 32.0585 89.9632 31.9922C90.0381 31.9214 90.1373 31.886 90.2607 31.886C90.3842 31.886 90.479 31.9192 90.5451 31.9855C90.6112 32.0519 90.6443 32.1448 90.6443 32.2642C90.6443 32.3924 90.6112 32.4919 90.5451 32.5627C90.479 32.6334 90.3842 32.6688 90.2607 32.6688ZM89.626 35.9525C89.6128 35.9525 89.6061 35.9392 89.6061 35.9127C89.6061 35.8861 89.6128 35.8729 89.626 35.8729C89.7626 35.8729 89.8552 35.8419 89.9037 35.78C89.9522 35.7137 89.9764 35.592 89.9764 35.4152V34.2277C89.9764 34.0774 89.961 33.969 89.9301 33.9027C89.8993 33.8363 89.8486 33.8032 89.7781 33.8032C89.7208 33.8032 89.6392 33.8275 89.5334 33.8761H89.5268C89.5092 33.8761 89.4959 33.8651 89.4871 33.843C89.4783 33.8164 89.4805 33.801 89.4937 33.7965L90.4922 33.3322L90.512 33.3255C90.5341 33.3255 90.5561 33.3366 90.5781 33.3587C90.6002 33.3808 90.6112 33.4007 90.6112 33.4184V33.5644C90.6024 33.7413 90.598 33.958 90.598 34.2145V35.4152C90.598 35.592 90.6222 35.7137 90.6707 35.78C90.7236 35.8419 90.8184 35.8729 90.955 35.8729C90.9683 35.8729 90.9749 35.8861 90.9749 35.9127C90.9749 35.9392 90.9683 35.9525 90.955 35.9525C90.8404 35.9525 90.7501 35.9503 90.6839 35.9458L90.2872 35.9392L89.8971 35.9458C89.831 35.9503 89.7406 35.9525 89.626 35.9525ZM91.3363 35.9525C91.3275 35.9525 91.3231 35.9392 91.3231 35.9127C91.3231 35.8861 91.3275 35.8729 91.3363 35.8729C91.473 35.8729 91.5656 35.8419 91.6141 35.78C91.667 35.7137 91.6934 35.592 91.6934 35.4152L91.7 32.0452C91.7 31.8905 91.6846 31.7799 91.6537 31.7136C91.6273 31.6472 91.5788 31.6141 91.5083 31.6141C91.451 31.6141 91.3672 31.6384 91.257 31.687H91.2504C91.2372 31.687 91.2239 31.676 91.2107 31.6539C91.2019 31.6273 91.2019 31.6118 91.2107 31.6074L92.1827 31.1497L92.2092 31.1431C92.2312 31.1431 92.2554 31.1541 92.2819 31.1762C92.3083 31.1939 92.3216 31.2116 92.3216 31.2293V35.4152C92.3216 35.592 92.3458 35.7137 92.3943 35.78C92.4428 35.8419 92.5354 35.8729 92.672 35.8729C92.6896 35.8729 92.6985 35.8861 92.6985 35.9127C92.6985 35.9392 92.6896 35.9525 92.672 35.9525C92.5618 35.9525 92.4736 35.9503 92.4075 35.9458L92.0042 35.9392L91.6074 35.9458C91.5413 35.9503 91.451 35.9525 91.3363 35.9525ZM95.5748 32.4764C95.5748 32.6356 95.6144 32.7772 95.6938 32.901C95.7775 33.0248 95.8789 33.1332 95.998 33.226C96.117 33.3189 96.2779 33.4317 96.4807 33.5644C96.7011 33.7059 96.8774 33.8297 97.0096 33.9358C97.1419 34.042 97.2543 34.1724 97.3468 34.3272C97.4394 34.4776 97.4857 34.6523 97.4857 34.8513C97.4857 35.0813 97.424 35.2869 97.3006 35.4682C97.1771 35.6451 97.0052 35.7844 96.7848 35.8861C96.5688 35.9834 96.3264 36.0321 96.0575 36.0321C95.8591 36.0321 95.6519 36.0055 95.4359 35.9525C95.2199 35.895 95.0744 35.8331 94.9995 35.7667C94.9775 35.749 94.9598 35.7336 94.9466 35.7203C94.9378 35.7026 94.9334 35.6761 94.9334 35.6407L94.9135 34.5859V34.5793C94.9135 34.5616 94.9246 34.5528 94.9466 34.5528C94.9686 34.5484 94.9819 34.555 94.9863 34.5727C95.1185 34.8424 95.2331 35.0614 95.3301 35.2294C95.4315 35.3975 95.5571 35.5456 95.707 35.6739C95.8613 35.8021 96.0354 35.8662 96.2294 35.8662C96.4057 35.8662 96.5512 35.8198 96.6658 35.7269C96.7804 35.6296 96.8377 35.466 96.8377 35.236C96.8377 35.0415 96.7936 34.8712 96.7055 34.7252C96.6217 34.5793 96.5181 34.4555 96.3947 34.3538C96.2713 34.252 96.1015 34.1304 95.8856 33.9889C95.674 33.8518 95.5086 33.7346 95.3896 33.6373C95.275 33.54 95.1758 33.4228 95.0921 33.2857C95.0083 33.1486 94.9664 32.9872 94.9664 32.8015C94.9664 32.5671 95.0326 32.3703 95.1648 32.2111C95.3015 32.0475 95.4756 31.9281 95.6872 31.8529C95.8988 31.7733 96.1214 31.7335 96.355 31.7335C96.5093 31.7335 96.6658 31.7489 96.8245 31.7799C96.9832 31.8064 97.111 31.8396 97.208 31.8794C97.2477 31.8971 97.2741 31.917 97.2873 31.9391C97.3006 31.9568 97.3072 31.9811 97.3072 32.0121V32.9872C97.3072 33.0005 97.2962 33.0116 97.2741 33.0204C97.2521 33.0248 97.2388 33.0204 97.2344 33.0071L97.1815 32.8811C97.0713 32.6025 96.9413 32.3659 96.7914 32.1713C96.646 31.9767 96.441 31.8794 96.1765 31.8794C96.0002 31.8794 95.8547 31.9303 95.7401 32.032C95.6299 32.1337 95.5748 32.2818 95.5748 32.4764ZM100.598 35.5943C100.615 35.5943 100.627 35.6053 100.631 35.6274C100.64 35.6451 100.635 35.6584 100.618 35.6672L99.9366 35.9923C99.919 36.0011 99.897 36.0055 99.8705 36.0055C99.8 36.0055 99.7317 35.968 99.6655 35.8928C99.6038 35.8176 99.5597 35.7159 99.5333 35.5876L99.249 35.7866C99.1476 35.8618 99.0528 35.9171 98.9646 35.9525C98.8765 35.9834 98.7773 35.9989 98.6671 35.9989C98.4775 35.9989 98.3343 35.9569 98.2373 35.8729C98.1403 35.7888 98.0918 35.6717 98.0918 35.5213C98.0918 35.4019 98.1205 35.3068 98.1778 35.236C98.2351 35.1609 98.3056 35.1034 98.3894 35.0636C98.4775 35.0193 98.5988 34.9707 98.753 34.9176L98.9184 34.8579L99.5135 34.639V34.2609C99.5135 33.9779 99.4892 33.7722 99.4407 33.644C99.3966 33.5157 99.3195 33.4516 99.2093 33.4516C98.9757 33.4516 98.8434 33.6329 98.8126 33.9955C98.7993 34.1282 98.7597 34.2233 98.6935 34.2808C98.6318 34.3383 98.5437 34.367 98.429 34.367C98.3188 34.367 98.2373 34.3449 98.1844 34.3007C98.1359 34.252 98.1117 34.1901 98.1117 34.115C98.1117 33.9823 98.1888 33.8562 98.3431 33.7368C98.4974 33.613 98.6825 33.5135 98.8985 33.4383C99.1189 33.3631 99.3129 33.3255 99.4804 33.3255C99.6743 33.3255 99.8308 33.3875 99.9499 33.5113C100.073 33.6307 100.135 33.8142 100.135 34.0619V35.236C100.135 35.3643 100.157 35.4638 100.201 35.5346C100.25 35.6053 100.316 35.6407 100.399 35.6407C100.461 35.6407 100.525 35.6252 100.591 35.5943H100.598ZM99.5201 35.4749C99.5156 35.4572 99.5135 35.4284 99.5135 35.3886V34.7518L99.2291 34.8845C99.2159 34.8889 99.1718 34.9066 99.0969 34.9375C99.0219 34.9641 98.9558 35.0105 98.8985 35.0768C98.8456 35.1432 98.8192 35.2206 98.8192 35.309C98.8192 35.4151 98.8522 35.4992 98.9184 35.5611C98.9889 35.6186 99.0682 35.6473 99.1564 35.6473C99.2269 35.6473 99.2997 35.623 99.3746 35.5744L99.5201 35.4749ZM100.841 35.9525C100.833 35.9525 100.828 35.9392 100.828 35.9127C100.828 35.8861 100.833 35.8729 100.841 35.8729C100.978 35.8729 101.071 35.8419 101.119 35.78C101.172 35.7137 101.198 35.592 101.198 35.4152L101.205 32.0452C101.205 31.8905 101.19 31.7799 101.159 31.7136C101.132 31.6472 101.084 31.6141 101.013 31.6141C100.956 31.6141 100.872 31.6384 100.762 31.687H100.755C100.742 31.687 100.729 31.676 100.716 31.6539C100.707 31.6273 100.707 31.6118 100.716 31.6074L101.688 31.1497L101.714 31.1431C101.736 31.1431 101.761 31.1541 101.787 31.1762C101.813 31.1939 101.827 31.2116 101.827 31.2293V35.4152C101.827 35.592 101.851 35.7137 101.899 35.78C101.948 35.8419 102.04 35.8729 102.177 35.8729C102.195 35.8729 102.204 35.8861 102.204 35.9127C102.204 35.9392 102.195 35.9525 102.177 35.9525C102.067 35.9525 101.979 35.9503 101.913 35.9458L101.509 35.9392L101.113 35.9458C101.046 35.9503 100.956 35.9525 100.841 35.9525ZM103.946 36.0387C103.673 36.0387 103.433 35.9768 103.226 35.853C103.023 35.7247 102.866 35.5545 102.756 35.3422C102.646 35.1255 102.591 34.8911 102.591 34.639C102.591 34.3516 102.664 34.1083 102.809 33.9093C102.955 33.7059 103.14 33.5555 103.365 33.4582C103.589 33.3565 103.821 33.3056 104.059 33.3056C104.332 33.3056 104.57 33.3698 104.773 33.498C104.976 33.6263 105.13 33.7965 105.236 34.0088C105.346 34.2167 105.401 34.44 105.401 34.6788C105.401 34.9442 105.335 35.1808 105.203 35.3886C105.07 35.5921 104.892 35.7513 104.667 35.8662C104.447 35.9812 104.206 36.0387 103.946 36.0387ZM104.145 35.8994C104.317 35.8994 104.447 35.8154 104.535 35.6473C104.627 35.4749 104.674 35.2294 104.674 34.911C104.674 34.6014 104.634 34.3361 104.555 34.115C104.475 33.8938 104.372 33.728 104.244 33.6174C104.116 33.5024 103.979 33.445 103.834 33.445C103.481 33.445 103.305 33.7612 103.305 34.3936C103.305 34.6899 103.342 34.953 103.417 35.183C103.492 35.4085 103.594 35.5854 103.722 35.7137C103.849 35.8375 103.99 35.8994 104.145 35.8994ZM108.98 35.8729C108.993 35.8729 109 35.8861 109 35.9127C109 35.9392 108.993 35.9525 108.98 35.9525C108.865 35.9525 108.775 35.9503 108.709 35.9458L108.312 35.9392L107.929 35.9458C107.858 35.9503 107.765 35.9525 107.651 35.9525C107.638 35.9525 107.631 35.9392 107.631 35.9127C107.631 35.8861 107.638 35.8729 107.651 35.8729C107.788 35.8729 107.88 35.8419 107.929 35.78C107.977 35.7137 108.001 35.592 108.001 35.4152V34.4599C108.001 34.2211 107.957 34.0442 107.869 33.9292C107.785 33.8142 107.651 33.7567 107.466 33.7567C107.36 33.7567 107.25 33.7788 107.135 33.8231C107.025 33.8673 106.928 33.927 106.844 34.0022V35.4152C106.844 35.592 106.868 35.7137 106.917 35.78C106.97 35.8419 107.065 35.8729 107.201 35.8729C107.214 35.8729 107.221 35.8861 107.221 35.9127C107.221 35.9392 107.214 35.9525 107.201 35.9525C107.087 35.9525 106.996 35.9503 106.93 35.9458L106.533 35.9392L106.143 35.9458C106.077 35.9503 105.987 35.9525 105.872 35.9525C105.859 35.9525 105.852 35.9392 105.852 35.9127C105.852 35.8861 105.859 35.8729 105.872 35.8729C106.009 35.8729 106.101 35.8419 106.15 35.78C106.198 35.7137 106.223 35.592 106.223 35.4152V34.168C106.223 34.0309 106.205 33.9314 106.17 33.8695C106.139 33.8032 106.088 33.77 106.018 33.77C105.943 33.77 105.837 33.801 105.7 33.8629H105.687C105.674 33.8629 105.663 33.8518 105.654 33.8297C105.65 33.8076 105.652 33.7943 105.661 33.7899L106.58 33.3388C106.606 33.33 106.622 33.3255 106.626 33.3255C106.674 33.3255 106.721 33.3742 106.765 33.4715C106.809 33.5644 106.835 33.6926 106.844 33.8562C107.148 33.4936 107.483 33.3123 107.849 33.3123C108.087 33.3123 108.275 33.3897 108.411 33.5445C108.552 33.6948 108.623 33.8938 108.623 34.1415V35.4152C108.623 35.592 108.647 35.7137 108.696 35.78C108.749 35.8419 108.843 35.8729 108.98 35.8729Z" fill="#0D0D0D"/>
<path d="M63.9214 26.0137C63.9612 26.0137 63.981 26.0729 63.981 26.1913C63.981 26.3096 63.9612 26.3688 63.9214 26.3688H58.6112C58.1736 26.3688 57.3582 25.5896 56.1649 24.0312C54.9716 22.453 53.5297 20.2535 51.8392 17.4326C51.6801 17.4523 51.4514 17.4621 51.1531 17.4621C50.3774 17.4621 49.8305 17.4523 49.5123 17.4326V23.972C49.5123 24.5835 49.562 25.0274 49.6614 25.3036C49.7609 25.5797 49.9498 25.7671 50.2283 25.8658C50.5266 25.9644 50.994 26.0137 51.6304 26.0137C51.6702 26.0137 51.69 26.0729 51.69 26.1913C51.69 26.3096 51.6702 26.3688 51.6304 26.3688C50.9741 26.3688 50.457 26.359 50.0791 26.3392L47.8118 26.3096L45.634 26.3392C45.2363 26.359 44.6993 26.3688 44.0231 26.3688C43.9634 26.3688 43.9336 26.3096 43.9336 26.1913C43.9336 26.0729 43.9634 26.0137 44.0231 26.0137C44.6595 26.0137 45.1169 25.9644 45.3954 25.8658C45.6937 25.7671 45.8926 25.5797 45.992 25.3036C46.1114 25.0077 46.171 24.5638 46.171 23.972V10.2717C46.171 9.67991 46.1213 9.24592 46.0219 8.96974C45.9224 8.69357 45.7235 8.50616 45.4252 8.40753C45.1269 8.28917 44.6695 8.22999 44.0529 8.22999C44.0131 8.22999 43.9933 8.17081 43.9933 8.05245C43.9933 7.93408 44.0131 7.8749 44.0529 7.8749L45.634 7.90449C46.5489 7.94395 47.2748 7.96367 47.8118 7.96367C48.488 7.96367 49.1941 7.93408 49.9299 7.8749C50.1885 7.85518 50.5067 7.83545 50.8846 7.81572C51.2823 7.796 51.7199 7.78613 52.1972 7.78613C54.007 7.78613 55.4092 8.12149 56.4036 8.7922C57.398 9.44319 57.8952 10.3605 57.8952 11.5441C57.8952 12.6291 57.5969 13.6154 57.0002 14.5031C56.4036 15.3711 55.6081 16.0714 54.6136 16.604C56.2047 18.9713 57.5372 20.8256 58.6112 22.167C59.6852 23.5084 60.6398 24.4849 61.4751 25.0964C62.3104 25.708 63.1258 26.0137 63.9214 26.0137ZM49.5123 16.604C49.9896 16.6829 50.5664 16.7224 51.2426 16.7224C52.3961 16.7224 53.2214 16.4068 53.7187 15.7755C54.2358 15.1245 54.4943 14.0889 54.4943 12.6685C54.4943 11.0509 54.2556 9.93636 53.7783 9.32483C53.301 8.71329 52.6149 8.40753 51.7199 8.40753C50.9243 8.40753 50.3575 8.55548 50.0194 8.85138C49.6813 9.14728 49.5123 9.64046 49.5123 10.3309V16.604ZM76.1301 24.7709C76.2096 24.7709 76.2593 24.8203 76.2792 24.9189C76.319 24.9978 76.2991 25.057 76.2196 25.0964L73.1468 26.5464C73.0673 26.5858 72.9678 26.6055 72.8485 26.6055C72.5303 26.6055 72.222 26.4379 71.9237 26.1025C71.6452 25.7671 71.4464 25.3134 71.327 24.7414L70.0442 25.6291C69.5868 25.9644 69.1592 26.211 68.7614 26.3688C68.3637 26.5069 67.9162 26.5759 67.419 26.5759C66.5638 26.5759 65.9174 26.3885 65.4799 26.0137C65.0423 25.6389 64.8235 25.1162 64.8235 24.4454C64.8235 23.9128 64.9528 23.4887 65.2114 23.1731C65.4699 22.8377 65.7881 22.5813 66.166 22.4037C66.5638 22.2065 67.1107 21.9895 67.8068 21.7527L68.5526 21.4864L71.2375 20.5099V18.8233C71.2375 17.5608 71.1281 16.6435 70.9094 16.0714C70.7105 15.4993 70.3624 15.2133 69.8652 15.2133C68.8111 15.2133 68.2145 16.0221 68.0753 17.6397C68.0156 18.2315 67.8366 18.6556 67.5383 18.9121C67.2599 19.1685 66.8621 19.2967 66.345 19.2967C65.8478 19.2967 65.4799 19.1981 65.2412 19.0008C65.0224 18.7838 64.913 18.5077 64.913 18.1723C64.913 17.5805 65.2611 17.0183 65.9572 16.4857C66.6533 15.9333 67.4886 15.4895 68.4631 15.1541C69.4575 14.8188 70.3326 14.6511 71.0884 14.6511C71.9635 14.6511 72.6695 14.9272 73.2065 15.4796C73.7633 16.0122 74.0418 16.8309 74.0418 17.9356V23.1731C74.0418 23.7451 74.1412 24.189 74.3401 24.5046C74.5589 24.8203 74.8572 24.9781 75.2351 24.9781C75.5135 24.9781 75.8019 24.909 76.1002 24.7709H76.1301ZM71.2674 24.2383C71.2475 24.1594 71.2375 24.0312 71.2375 23.8536V21.013L69.9547 21.6048C69.8951 21.6245 69.6962 21.7034 69.3581 21.8415C69.02 21.9599 68.7217 22.167 68.4631 22.4629C68.2244 22.7588 68.1051 23.104 68.1051 23.4986C68.1051 23.972 68.2543 24.3468 68.5526 24.623C68.8708 24.8794 69.2288 25.0077 69.6266 25.0077C69.9448 25.0077 70.2729 24.8992 70.611 24.6822L71.2674 24.2383ZM79.7072 16.3673C79.7072 16.9394 79.9061 17.4326 80.3038 17.8468C80.7215 18.2611 81.3182 18.6951 82.0938 19.1488C82.8496 19.5828 83.4064 19.928 83.7644 20.1845C84.1423 20.4212 84.4804 20.7664 84.7787 21.2201C85.077 21.6541 85.2262 22.1867 85.2262 22.818C85.2262 23.4887 85.0572 24.12 84.7191 24.7118C84.381 25.3036 83.8738 25.7869 83.1976 26.1617C82.5214 26.5168 81.7159 26.6943 80.7812 26.6943C79.6873 26.6943 78.6531 26.428 77.6786 25.8954C77.5593 25.777 77.4996 25.6586 77.4996 25.5403L77.4399 22.6109C77.4399 22.5517 77.4896 22.5221 77.5891 22.5221C77.7084 22.5024 77.778 22.5122 77.7979 22.5517C78.1161 23.538 78.6432 24.3764 79.379 25.0668C80.1149 25.7573 80.8607 26.1025 81.6165 26.1025C82.0341 26.1025 82.3623 25.9743 82.601 25.7178C82.8595 25.4614 82.9888 25.0866 82.9888 24.5934C82.9888 23.8635 82.7799 23.2914 82.3623 22.8772C81.9446 22.4432 81.3281 21.9993 80.5127 21.5456C79.8166 21.1708 79.2895 20.865 78.9315 20.6283C78.5736 20.3916 78.2553 20.0562 77.9769 19.6222C77.6985 19.1882 77.5593 18.6556 77.5593 18.0244C77.5593 16.8605 77.9769 16.0122 78.8122 15.4796C79.6475 14.9272 80.6718 14.6511 81.885 14.6511C82.3424 14.6511 82.7501 14.6807 83.1081 14.7398C83.486 14.799 83.9036 14.9174 84.3611 15.0949C84.5401 15.1541 84.6296 15.2626 84.6296 15.4204C84.6296 15.9136 84.6196 16.2983 84.5997 16.5744L84.5699 18.054C84.5699 18.1131 84.5102 18.1427 84.3909 18.1427C84.2716 18.1427 84.2119 18.1131 84.2119 18.054C84.2119 17.6791 84.0528 17.2747 83.7346 16.8408C83.4164 16.387 82.9987 16.0024 82.4816 15.6867C81.9844 15.3711 81.4673 15.2133 80.9303 15.2133C80.1149 15.2133 79.7072 15.598 79.7072 16.3673ZM108.881 26.0137C108.96 26.0137 109 26.0729 109 26.1913C109 26.3096 108.96 26.3688 108.881 26.3688C108.364 26.3688 107.956 26.359 107.658 26.3392L105.868 26.3096L104.137 26.3392C103.819 26.359 103.401 26.3688 102.884 26.3688C102.825 26.3688 102.795 26.3096 102.795 26.1913C102.795 26.0729 102.825 26.0137 102.884 26.0137C103.501 26.0137 103.918 25.8756 104.137 25.5995C104.376 25.3036 104.495 24.7611 104.495 23.972V19.711C104.495 18.6458 104.306 17.8567 103.928 17.3438C103.57 16.8309 103.014 16.5744 102.258 16.5744C101.741 16.5744 101.234 16.6829 100.736 16.8999C100.239 17.1169 99.8116 17.4128 99.4536 17.7876V17.9652V23.972C99.4536 24.7611 99.563 25.3036 99.7817 25.5995C100.02 25.8756 100.448 26.0137 101.065 26.0137C101.144 26.0137 101.184 26.0729 101.184 26.1913C101.184 26.3096 101.144 26.3688 101.065 26.3688C100.547 26.3688 100.14 26.359 99.8414 26.3392L98.0514 26.3096L96.3211 26.3392C96.0029 26.359 95.5853 26.3688 95.0682 26.3688C95.0085 26.3688 94.9787 26.3096 94.9787 26.1913C94.9787 26.0729 95.0085 26.0137 95.0682 26.0137C95.6847 26.0137 96.1024 25.8756 96.3211 25.5995C96.5598 25.3036 96.6791 24.7611 96.6791 23.972V19.711C96.6791 18.6458 96.4902 17.8567 96.1123 17.3438C95.7543 16.8309 95.1975 16.5744 94.4417 16.5744C93.9644 16.5744 93.4871 16.6731 93.0097 16.8703C92.5523 17.0479 92.1446 17.3043 91.7866 17.6397V23.972C91.7866 24.7611 91.896 25.3036 92.1148 25.5995C92.3534 25.8756 92.781 26.0137 93.3976 26.0137C93.4572 26.0137 93.4871 26.0729 93.4871 26.1913C93.4871 26.3096 93.4572 26.3688 93.3976 26.3688C92.8805 26.3688 92.4728 26.359 92.1744 26.3392L90.3845 26.3096L88.6244 26.3392C88.326 26.359 87.9183 26.3688 87.4012 26.3688C87.3416 26.3688 87.3117 26.3096 87.3117 26.1913C87.3117 26.0729 87.3416 26.0137 87.4012 26.0137C88.0178 26.0137 88.4354 25.8756 88.6542 25.5995C88.873 25.3036 88.9823 24.7611 88.9823 23.972V18.409C88.9823 17.7975 88.9028 17.3537 88.7437 17.0775C88.6045 16.7816 88.3758 16.6336 88.0575 16.6336C87.7194 16.6336 87.2421 16.7717 86.6256 17.0479H86.5659C86.5062 17.0479 86.4565 16.9986 86.4168 16.8999C86.3969 16.8013 86.4068 16.7421 86.4466 16.7224L90.5933 14.7103C90.7126 14.6708 90.7822 14.6511 90.8021 14.6511C91.0209 14.6511 91.2297 14.8681 91.4286 15.3021C91.6275 15.7163 91.7468 16.2785 91.7866 16.9887C93.139 15.3908 94.5909 14.5919 96.1421 14.5919C97.0769 14.5919 97.8227 14.8188 98.3796 15.2725C98.9365 15.7262 99.2746 16.3772 99.3939 17.2254C100.766 15.4697 102.288 14.5919 103.958 14.5919C105.032 14.5919 105.848 14.8977 106.405 15.5092C106.981 16.1207 107.27 17.0479 107.27 18.2907V23.972C107.27 24.7611 107.379 25.3036 107.598 25.5995C107.836 25.8756 108.264 26.0137 108.881 26.0137Z" fill="#C28565"/>
<path d="M38.8226 11.404C38.7333 10.8895 38.5107 10.3163 38.1922 9.81933V9.8186C37.7628 9.14953 37.16 8.61905 36.4753 8.55737C35.4237 8.463 34.4703 9.21193 33.8229 10.0644C33.6607 10.2783 33.5088 10.5013 33.3615 10.7274C32.9217 11.4025 32.5175 12.105 31.9549 12.6736C30.9227 13.7163 29.7133 14.3617 28.2927 14.6632C26.8719 14.9646 25.2242 14.632 23.8839 15.199C22.5436 15.7661 21.4451 17.0714 20.7411 18.3691C19.557 20.552 19.1134 23.085 19.0733 25.5077V25.5092C19.0703 25.6789 19.0696 25.8472 19.0711 26.0154C19.0867 28.5887 19.8056 31.1721 21.2278 33.2956C22.9455 35.8613 25.9379 38.4393 28.9781 38.4637C29.9381 38.4713 30.7962 38.3609 31.5687 38.1585C31.6401 38.1402 31.6624 38.0701 31.6446 38.0138C31.632 37.9727 31.597 37.9384 31.5426 37.9369C23.1672 37.7528 25.222 30.6027 26.8719 29.0241C27.4591 28.4624 28.2562 28.521 29.1075 28.7996C29.4774 28.9206 29.857 29.0828 30.2343 29.2532L30.235 29.254C30.6764 29.4534 31.1147 29.6642 31.5285 29.834C32.4521 30.213 33.2573 30.3881 33.7202 29.7792C35.001 28.0925 34.9816 28.7867 35.5443 27.4775C35.8613 26.7392 34.9608 26.2719 34.2151 25.889C34.1496 25.8556 34.1853 25.7543 34.2568 25.7695C37.2716 26.4218 36.7179 24.2328 36.7179 24.2328C37.7658 24.2922 38.8717 23.4291 38.2897 21.7325C37.7077 20.036 37.7077 18.5776 37.7077 18.5776C37.829 16.7783 38.3165 16.327 38.6685 14.5597C38.9067 13.3586 39.0324 12.6104 38.8226 11.404ZM35.7988 18.6423C35.7542 18.6568 35.7087 18.6705 35.6641 18.6834C35.5859 18.7055 35.5309 18.7778 35.5309 18.8608V19.5138C35.5309 19.6881 35.3865 19.8289 35.2131 19.8175C35.0553 19.8068 34.9355 19.6653 34.9355 19.5031V18.8714C34.9355 18.8311 34.9035 18.7984 34.8641 18.7984C34.6981 18.7984 34.5336 18.7831 34.3706 18.7534C34.3372 18.7474 34.3044 18.7656 34.2917 18.7984L34.0283 19.5039C33.9829 19.6249 33.8698 19.6996 33.75 19.6996C33.7105 19.6996 33.6703 19.6912 33.6317 19.6744C33.4843 19.609 33.4188 19.4301 33.4768 19.2764L33.6696 18.7603C33.7105 18.6507 33.6644 18.5274 33.5617 18.4749C33.4999 18.4437 33.4389 18.4102 33.3778 18.3737C33.2841 18.3181 33.1643 18.3409 33.0951 18.4262L32.6411 18.9871C32.5823 19.0594 32.4974 19.0975 32.4119 19.0975C32.3449 19.0975 32.2779 19.0747 32.2221 19.0274C32.0956 18.9209 32.0777 18.7284 32.1826 18.5989L32.6515 18.0197C32.7036 17.955 32.6976 17.8606 32.6389 17.8028C32.5674 17.7336 32.4997 17.6643 32.4364 17.595C32.3858 17.5395 32.3047 17.5288 32.2415 17.5692L31.7249 17.898C31.6766 17.9284 31.6223 17.9436 31.5687 17.9436C31.4667 17.9436 31.3662 17.8903 31.3112 17.7922C31.2293 17.6483 31.2829 17.4633 31.4206 17.375L31.8418 17.1071C31.9155 17.0599 31.9378 16.9602 31.8902 16.8849C31.8173 16.7715 31.7778 16.6977 31.7726 16.6893C31.6937 16.5416 31.7473 16.3567 31.8909 16.276C32.0345 16.1953 32.2154 16.2493 32.295 16.3963C32.3002 16.4062 32.6321 17.0128 33.2186 17.5166C33.5371 17.7898 33.8653 17.9794 34.2025 18.0867C34.2136 18.0898 34.2255 18.0928 34.2367 18.0974L34.2374 18.0981C34.6877 18.2329 35.1521 18.2207 35.6276 18.0601C35.7891 18.006 35.964 18.0997 36.0086 18.2702C36.0481 18.4292 35.9514 18.5913 35.7988 18.6423ZM36.3525 16.8476C36.348 16.8476 36.3435 16.8476 36.3391 16.8476C36.1813 16.8476 36.0496 16.7198 36.0421 16.5569C36.0213 16.069 35.8479 15.7052 35.5137 15.4426C34.4361 14.5969 32.1194 15.1084 32.0963 15.1137C31.9363 15.1495 31.777 15.0468 31.7413 14.8824C31.7064 14.7179 31.8068 14.5558 31.9676 14.5193C32.0732 14.4957 34.5775 13.9416 35.8755 14.9592C36.351 15.3322 36.607 15.8604 36.636 16.5294C36.6442 16.6977 36.517 16.84 36.3525 16.8476Z" fill="#C28565"/>
<path d="M31.6441 38.0129C29.9495 38.0868 27.5122 37.8166 25.5423 36.0926C22.4887 33.4195 21.6768 28.2325 24.0166 23.706C24.1275 23.4914 24.4364 23.5165 24.5138 23.7463C24.9484 25.0357 26.1198 27.3899 29.1071 28.7995C28.2557 28.5216 27.4586 28.4623 26.8714 29.024C25.2215 30.6018 23.1667 37.7519 31.5421 37.9368C31.5965 37.9376 31.6315 37.9718 31.6441 38.0129Z" fill="#C28565"/>
<path d="M26.8496 38.9286C25.3038 38.6515 23.7521 38.0708 22.717 37.4307C22.1163 37.0592 21.5738 36.6072 21.0514 36.1269C19.9857 34.8984 19.0353 33.5634 18.0068 32.3007C16.7111 30.7099 15.2465 29.2006 13.4246 28.2964C11.5061 27.3442 9.27712 27.1067 7.36823 26.1865C8.02762 26.7452 8.83506 27.1441 9.6455 27.45C10.8668 27.9112 12.1506 28.2127 13.3093 28.82C14.992 29.7029 16.3048 31.1757 17.4494 32.717C17.5863 32.9012 17.721 33.0869 17.855 33.2734C17.8766 33.3038 17.8416 33.3427 17.8103 33.3221C15.7994 31.9932 13.4485 31.2397 11.1444 30.5212C8.99061 29.8498 6.79442 29.1663 4.85796 28.0224C4.39953 27.7522 3.95599 27.4561 3.5303 27.1273C1.54472 25.5959 0.0190701 23.2044 0.00195312 20.7041C1.33038 21.6061 2.97956 22.196 4.43078 22.5438C7.0013 23.1603 9.7199 23.2752 12.1178 24.4055C14.5506 25.5518 16.4841 27.5878 18.0418 29.8331C18.1899 30.047 18.335 30.2624 18.4764 30.4793C19.097 31.4307 19.6761 32.3981 20.2789 33.3214C20.2796 33.3229 20.2804 33.3244 20.2819 33.3251V33.3259C21.3528 34.9677 22.4989 36.4709 24.0892 37.5053C24.6675 37.8813 25.3566 38.255 26.1195 38.5762C26.3613 38.6782 26.6114 38.7748 26.8667 38.8639C26.9024 38.8791 26.8883 38.9362 26.8496 38.9286Z" fill="#C28565"/>
<path d="M20.7298 37.1148C18.9042 36.0173 16.9961 35.0171 14.9784 34.7819C13.1871 34.5734 11.3534 34.3732 9.73326 33.5984C10.5869 34.2309 11.7419 34.6061 12.7354 34.8139C13.9351 35.0651 15.1802 35.2119 16.356 35.5621C17.1799 35.8079 18.3408 36.3902 19.4825 37.0257C19.516 37.0448 19.5018 37.098 19.4639 37.0958C19.0055 37.0737 18.544 37.0859 18.0908 37.1193C16.6515 37.2267 15.2181 37.5205 13.7766 37.4474C11.8684 37.3507 9.9997 36.5866 8.54772 35.317C8.46808 35.2478 8.38994 35.1762 8.31253 35.1039C7.08461 33.9462 6.19899 32.4164 5.78223 30.7632C5.94667 30.8514 6.1149 30.9337 6.28752 31.0098C7.3525 31.4809 8.54699 31.7229 9.70423 31.866C11.7471 32.1195 13.8696 32.1652 15.7391 33.0435C16.1863 33.2536 16.6076 33.5063 17.0117 33.7872C18.0551 34.5148 18.9809 35.4365 19.9149 36.3163C20.1887 36.5744 20.4678 36.8316 20.7528 37.0798C20.7715 37.098 20.7513 37.1277 20.7298 37.1148Z" fill="#C28565"/>
<path d="M21.813 13.714C21.7535 14.3259 21.3419 14.8709 20.7309 15.0627C20.0321 15.2811 19.2983 14.9668 18.9478 14.3457C18.8898 14.2445 18.8429 14.1341 18.8079 14.0169C18.5593 13.185 19.017 12.3044 19.8304 12.0502C20.6439 11.7959 21.5049 12.264 21.7535 13.096C21.8153 13.3022 21.8331 13.5115 21.813 13.714Z" fill="#C28565"/>
<path d="M25.8991 6.89698C25.8224 7.11999 25.7316 7.33003 25.6252 7.52034C24.6004 9.35238 23.0725 10.067 21.8781 10.4834C21.6042 9.45053 21.3683 8.10944 21.8156 6.60162C21.9078 6.29109 22.0291 5.97371 22.1847 5.64949C23.0569 3.83875 26.036 2.20841 26.2124 2.146C26.2555 2.3104 26.5339 5.06035 25.8991 6.89698Z" fill="#C28565"/>
<path d="M22.0482 2.9684C22.0355 3.00569 22.0228 3.04376 22.0079 3.08029C21.8241 3.53925 21.4602 3.89774 21.1528 4.28439C20.9236 3.84446 20.6327 3.42204 20.5381 2.93568C20.4719 2.59545 20.5069 2.25142 20.5999 1.91729C20.6907 1.59076 20.8366 1.27414 20.9988 0.978059C21.1357 0.729166 21.2846 0.484077 21.426 0.23671C21.4706 0.158314 21.5146 0.0791574 21.5562 0C21.5346 0.228338 21.513 0.463528 21.49 0.70557C21.4483 1.15616 21.4037 1.62806 21.3575 2.11594C21.3434 2.26588 21.3293 2.41734 21.3151 2.57033C21.33 2.41734 21.3434 2.26588 21.3575 2.11594C21.4037 1.62806 21.4475 1.1554 21.49 0.70557C21.513 0.463528 21.5346 0.228338 21.5562 0C21.5823 0.0860077 21.6105 0.172016 21.6396 0.258024C21.7318 0.528985 21.833 0.797664 21.9201 1.06939C22.1181 1.68286 22.2461 2.36178 22.0482 2.9684Z" fill="#C28565"/>
<path d="M32.3655 9.77778C32.2822 9.92543 30.5712 12.0786 28.8498 12.9151C28.6437 13.0156 28.4376 13.0963 28.2344 13.1533C26.2428 13.7082 24.6688 13.1085 23.5361 12.5391C23.8852 11.9165 24.3429 11.2071 25.0164 10.5838C25.5537 10.0868 26.228 9.64381 27.095 9.34317C28.9637 8.69312 32.1974 9.69481 32.3655 9.77778Z" fill="#C28565"/>
<path d="M30.2986 4.96851C30.0277 5.04158 29.7531 5.10629 29.4845 5.18392C28.8392 5.36963 28.1783 5.66492 27.8055 6.23506C27.7095 6.38193 27.6366 6.54098 27.5763 6.70771L27.5756 6.70843C27.4669 7.00757 27.3984 7.32723 27.3076 7.63399C27.7921 7.58299 28.2975 7.59289 28.7447 7.40108C29.0245 7.28085 29.2619 7.09132 29.4644 6.86142C29.7107 6.58442 29.9079 6.25102 30.0732 5.91612C30.1989 5.66114 30.3135 5.39779 30.4356 5.13977C30.4743 5.05833 30.5137 4.97689 30.5539 4.89697C30.4698 4.92133 30.385 4.94492 30.2986 4.96851ZM30.0955 5.28286C30.1736 5.21664 30.2517 5.15043 30.3284 5.08649C30.2517 5.15119 30.1744 5.21664 30.0955 5.28286Z" fill="#C28565"/>
<path d="M18.376 21.4628C17.5038 23.2735 14.5239 24.9039 14.3483 24.9663C14.3007 24.7821 13.9561 21.3441 14.9355 19.592C15.9602 17.7599 17.4874 17.0452 18.6819 16.6296L18.6826 16.6289C19.013 17.8748 19.2876 19.5691 18.376 21.4628Z" fill="#C28565"/>
<path d="M11.2148 12.6627C10.7846 12.8979 10.3716 13.1947 9.89602 13.2914C9.2389 13.4254 8.56761 13.1559 7.98268 12.8202C7.73854 12.681 7.49963 12.528 7.25777 12.3834C7.18114 12.3377 7.10372 12.2928 7.02637 12.2502C7.11045 12.2228 7.19454 12.1938 7.27862 12.1642C7.54356 12.0698 7.80627 11.9663 8.07121 11.8772C8.70753 11.6626 9.41753 11.5286 10.0374 11.7882C10.4855 11.9762 10.836 12.3476 11.2133 12.6619C11.2148 12.6627 11.2148 12.6627 11.2148 12.6627Z" fill="#C28565"/>
<path d="M17.0249 14.5749C16.3983 15.6945 15.4204 17.092 13.4661 17.7709C11.5974 18.4201 8.36374 17.4185 8.19629 17.3355C8.28933 17.1703 10.423 14.4904 12.3275 13.9599C14.3182 13.4051 15.8923 14.0041 17.0242 14.5741L17.0249 14.5749Z" fill="#C28565"/>
<path d="M11.8165 19.7131C11.1981 19.978 10.7888 20.5854 10.4874 21.1981C10.3616 21.4531 10.247 21.7164 10.1249 21.9744C10.0862 22.0559 10.0468 22.1373 10.0059 22.2172C10.0907 22.1921 10.1763 22.1678 10.2618 22.1449C10.5327 22.0719 10.8073 22.0064 11.076 21.9295C11.7213 21.7431 12.3821 21.4485 12.7542 20.8784C13.0237 20.4659 13.1107 19.9575 13.2521 19.4802V19.4795C12.7683 19.532 12.2631 19.5221 11.8165 19.7131ZM10.308 21.9638C10.41 21.8778 10.5134 21.7902 10.6191 21.7012C10.5134 21.791 10.4092 21.8786 10.308 21.9638Z" fill="#C28565"/>
<path d="M17.2755 11.9215C16.0579 12.2594 14.4005 12.541 12.5489 11.6079C11.8575 11.2601 11.1937 10.5827 10.6363 9.87632V9.8756C9.76779 8.77269 9.16123 7.59905 9.12402 7.48866C9.30415 7.43995 12.6658 7.08759 14.3789 8.08922C14.85 8.36472 15.2452 8.67526 15.5793 9.00638C16.5163 9.93571 16.9755 11.0211 17.2755 11.9215Z" fill="#C28565"/>
<path d="M14.3084 5.03281C14.2934 4.98791 14.2778 4.94376 14.26 4.89962C14.001 4.26788 13.4071 3.84926 12.808 3.541C12.5587 3.41237 12.3012 3.29516 12.0489 3.17033C11.9693 3.13075 11.8897 3.09041 11.8115 3.04932C11.8361 3.13608 11.8599 3.22361 11.883 3.31114C11.9544 3.58819 12.0177 3.86905 12.0936 4.14458C12.168 4.41631 12.2618 4.69183 12.3846 4.94756C12.5587 5.31215 12.7931 5.63791 13.1206 5.86169C13.5239 6.13647 14.0218 6.22551 14.4877 6.37088V6.3701C14.4423 5.92103 14.4453 5.456 14.3084 5.03281Z" fill="#C28565"/>
<path d="M19.2842 10.2278C18.1894 9.58613 16.823 8.58677 16.1592 6.58807C16.0312 6.20295 15.9687 5.76223 15.9515 5.301C15.8823 3.47201 16.5201 1.33476 16.5848 1.19775C16.7427 1.29137 19.2604 3.38676 19.8505 5.30176C19.8624 5.3421 19.8743 5.38244 19.8847 5.42202C20.4273 7.45957 19.8416 9.06932 19.2842 10.2278Z" fill="#C28565"/>
<path d="M18.0398 29.8331C15.2244 26.1424 12.1501 24.5509 8.72146 24.0531C7.48309 23.8734 5.30551 23.4876 4.06565 23.3117C3.12868 23.1793 2.18798 22.9616 1.32916 22.5658C1.9997 24.662 3.24255 26.558 4.85601 28.0223C4.39757 27.7521 3.95402 27.456 3.52833 27.1273C1.54275 25.5959 0.017117 23.2044 0 20.7041C1.32843 21.606 2.97759 22.1959 4.42882 22.5438C6.99931 23.1603 9.71798 23.2752 12.1158 24.4055C14.5494 25.5517 16.4822 27.587 18.0398 29.8331Z" fill="#C28565"/>
<path d="M20.2795 33.3274C20.2787 33.3259 20.2772 33.3243 20.2764 33.3228C20.2772 33.3243 20.2779 33.3259 20.2795 33.3267V33.3274Z" fill="#C28565"/>
<path d="M14.8093 32.9088C12.1242 32.2116 9.18973 32.7124 6.60431 31.726C6.93326 32.943 7.5718 34.0596 8.33686 35.0529C8.40532 35.1419 8.47606 35.231 8.54674 35.3185C8.4671 35.2492 8.38897 35.1777 8.31156 35.1054C7.08364 33.9477 6.19801 32.4178 5.78125 30.7646C5.9457 30.853 6.11392 30.9352 6.28654 31.0113C7.35152 31.4824 8.54596 31.7245 9.70326 31.8675C11.7461 32.121 13.8686 32.1667 15.7381 33.045C16.1854 33.2551 16.6066 33.5078 17.0107 33.7886C16.3163 33.405 15.5751 33.1074 14.8093 32.9088Z" fill="#C28565"/>
<path d="M38.1922 9.81956C38.114 9.77618 38.0337 9.73737 37.951 9.70161C36.9501 9.27234 35.7191 9.47404 34.8982 10.2017C34.1369 10.8768 33.6971 11.8457 33.1367 12.7027C32.0613 14.3483 30.2871 15.4519 28.3365 15.5981C26.5273 15.7335 24.7367 15.7944 23.2043 16.7877C21.5403 17.867 20.4612 19.7104 19.8926 21.6399C19.5302 22.8676 19.2548 24.1897 19.0732 25.5072C19.1134 23.0845 19.557 20.5515 20.741 18.3686C21.4451 17.0708 22.5435 15.7663 23.8838 15.1985C25.2242 14.6314 26.8719 14.964 28.2926 14.6626C29.7133 14.3612 30.9226 13.7158 31.9548 12.673C32.5175 12.1052 32.9216 11.402 33.3614 10.7268C33.5088 10.5008 33.6599 10.2778 33.8229 10.0639C34.4704 9.21144 35.4237 8.46251 36.4752 8.55688C37.1599 8.62006 37.7627 9.15055 38.1922 9.81956Z" fill="#C28565"/>
<path d="M18.6819 16.6299C18.6193 16.6703 14.5894 19.2672 14.3483 24.9666C14.3007 24.7824 13.9561 21.3443 14.9355 19.5922C15.961 17.7601 17.4881 17.0455 18.6819 16.6299Z" fill="#C28565"/>
<path d="M13.2529 19.4805C13.2529 19.4805 11.3968 20.2934 10.0059 22.2183C10.0468 22.1383 10.0862 22.0569 10.1249 21.9755C10.247 21.7174 10.3616 21.4541 10.4874 21.1991C10.7888 20.5872 11.1981 19.9798 11.8165 19.7142C12.2623 19.5223 12.7677 19.5322 13.2529 19.4805Z" fill="#C28565"/>
<path d="M17.0254 14.5737C16.9435 14.5608 12.5214 13.8628 8.19824 17.335C8.29128 17.1699 10.4249 14.49 12.3293 13.9595C14.3194 13.4053 15.8934 14.0043 17.0254 14.5737Z" fill="#C28565"/>
<path d="M11.214 12.6629C9.99651 12 7.02637 12.2512 7.02637 12.2512C7.11045 12.2238 7.19454 12.1948 7.27862 12.1651C7.54356 12.0708 7.80627 11.9673 8.07121 11.8782C8.70753 11.6636 9.41753 11.5296 10.0374 11.7891C10.4855 11.9764 10.8368 12.3486 11.214 12.6629Z" fill="#C28565"/>
<path d="M19.8512 5.30252C19.1338 3.96903 18.0443 2.84332 16.7404 2.10731C16.3616 3.13712 16.0974 4.21107 15.9515 5.301C15.8823 3.47201 16.5201 1.33476 16.5848 1.19775C16.7441 1.29213 19.2611 3.38676 19.8512 5.30252Z" fill="#C28565"/>
<path d="M25.8992 6.89724C26.0339 5.64212 25.9975 4.368 25.7898 3.12279C24.1332 3.77813 22.7125 5.03399 21.8164 6.60116C21.9087 6.29062 22.03 5.97324 22.1856 5.64896C23.0578 3.83826 26.0369 2.20792 26.2133 2.14551C26.2557 2.31067 26.534 5.06063 25.8992 6.89724Z" fill="#C28565"/>
<path d="M32.3647 9.7781C32.2814 9.92575 30.5705 12.079 28.849 12.9155C29.2591 12.6498 29.6387 12.3301 29.9802 11.9777C30.5392 11.4039 31.0088 10.747 31.439 10.0643C30.0495 9.54519 28.5127 9.44242 27.0697 9.77659C26.3522 9.94249 25.6586 10.2165 25.0156 10.5834C25.553 10.0864 26.2272 9.64335 27.0942 9.34271C28.9629 8.69349 32.1966 9.69512 32.3647 9.7781Z" fill="#C28565"/>
<path d="M15.5784 9.00716C15.178 8.78109 14.7903 8.54891 14.3564 8.3754C13.3264 7.96365 12.216 7.76194 11.1109 7.78552C10.6294 7.79542 10.1493 7.84947 9.6775 7.94691C9.8345 8.50709 10.1694 9.06421 10.4463 9.55288C10.5073 9.66171 10.5706 9.76904 10.6353 9.8756C9.76682 8.77269 9.16025 7.59905 9.12305 7.48866C9.30318 7.43995 12.6648 7.08759 14.378 8.08922C14.8483 8.3655 15.2442 8.67604 15.5784 9.00716Z" fill="#C28565"/>
<path d="M12.2008 3.53117C12.171 3.52204 12.1405 3.5129 12.1099 3.50377C12.197 3.96349 12.2848 4.42245 12.3719 4.88217C12.3757 4.90348 12.3801 4.92479 12.3846 4.9461C12.2618 4.69036 12.1688 4.41484 12.0936 4.14312C12.0177 3.86759 11.9544 3.58672 11.883 3.30967C11.8606 3.22215 11.8368 3.13462 11.8115 3.04785C11.8897 3.08895 11.9693 3.12929 12.0489 3.16887C12.3012 3.29369 12.5587 3.41091 12.808 3.53954C13.4064 3.8478 14.001 4.26642 14.26 4.89816C14.2779 4.94231 14.2942 4.98645 14.3084 5.03136C13.78 4.32731 13.0328 3.793 12.2008 3.53117Z" fill="#C28565"/>
<path d="M21.9226 1.06939C21.8355 0.797668 21.7343 0.528985 21.642 0.258023C21.613 0.172777 21.5847 0.0867686 21.5587 0L21.5579 0.00152374V0C21.5162 0.0791575 21.4723 0.158313 21.4277 0.23671C21.287 0.484076 21.1374 0.729159 21.0005 0.978046C20.839 1.27336 20.6924 1.59076 20.6016 1.91729C20.7973 1.44843 21.1039 1.02676 21.4909 0.705568C21.4969 0.70024 21.5028 0.695675 21.5088 0.690347C21.8861 1.38069 22.0744 2.17759 22.0491 2.96764C22.2478 2.36102 22.1198 1.6821 21.9226 1.06939Z" fill="#C28565"/>
<path d="M30.5538 4.89453C30.5136 4.97445 30.4742 5.05589 30.4355 5.13733C30.3134 5.39535 30.1988 5.65871 30.073 5.91369C29.9078 6.24858 29.7106 6.58192 29.4643 6.85898C29.7448 6.36654 29.9577 5.83377 30.0946 5.28194V5.28118C30.0984 5.26596 30.102 5.25074 30.1065 5.23552C30.1028 5.24998 29.6964 5.38166 29.6555 5.39155C29.5141 5.42504 29.2671 5.51942 29.1309 5.56967C28.6382 5.7523 28.3144 5.90913 27.9379 6.28056C27.8426 6.37416 27.7526 6.47387 27.6677 6.57814C27.6409 6.6109 27.6104 6.66718 27.5762 6.70449C27.6365 6.53855 27.7094 6.37872 27.8054 6.23185C28.1782 5.66176 28.8391 5.3672 29.4843 5.18072C29.753 5.10308 30.0276 5.03838 30.2985 4.96531C30.3841 4.944 30.469 4.92041 30.5538 4.89453Z" fill="#C28565"/>
<path d="M21.813 13.7147C21.7952 13.6401 21.7892 13.5473 21.7736 13.4886C21.7438 13.3767 21.7089 13.2664 21.6649 13.159C21.5667 12.9178 21.4208 12.6909 21.2154 12.5357C21.0182 12.3857 20.7741 12.3081 20.5293 12.2921C19.9242 12.2525 19.311 12.6118 19.0386 13.1666C18.8607 13.529 18.8354 13.9597 18.9478 14.3472C18.8898 14.246 18.8429 14.1356 18.8079 14.0183C18.5593 13.1864 19.017 12.3058 19.8304 12.0516C20.6439 11.7974 21.5049 12.2655 21.7535 13.0974C21.8153 13.3029 21.8332 13.5122 21.813 13.7147Z" fill="#C28565"/>
<path d="M20.2799 14.6379C20.9975 14.6379 21.5793 14.0429 21.5793 13.3089C21.5793 12.575 20.9975 11.98 20.2799 11.98C19.5623 11.98 18.9805 12.575 18.9805 13.3089C18.9805 14.0429 19.5623 14.6379 20.2799 14.6379Z" fill="#C28565"/>
</svg>
